HIERARCHY
ROOT Hips
{
  OFFSET -4.41651 77.0171 -0.176975
  CHANNELS 6 Xposition Yposition Zposition Zrotation Xrotation Yrotation
  JOINT Spine
  {
    OFFSET 0 8.5038 -4.6017
    CHANNELS 6 Xposition Yposition Zposition Zrotation Xrotation Yrotation
    JOINT Spine1
    {
      OFFSET 0 7.7603 0.4054
      CHANNELS 6 Xposition Yposition Zposition Zrotation Xrotation Yrotation
      JOINT Spine2
      {
        OFFSET 0 9.6025 -2.1374
        CHANNELS 6 Xposition Yposition Zposition Zrotation Xrotation Yrotation
        JOINT Neck
        {
          OFFSET 0 21.6389 -0.45
          CHANNELS 6 Xposition Yposition Zposition Zrotation Xrotation Yrotation
          JOINT Head
          {
            OFFSET -0.0001 12.2197 3.3238
            CHANNELS 6 Xposition Yposition Zposition Zrotation Xrotation Yrotation
            End Site
            {
              OFFSET 0.0001 17.074 0.5097
            }
          }
        }
        JOINT LeftShoulder
        {
          OFFSET 2.1846 20.8826 7.1545
          CHANNELS 6 Xposition Yposition Zposition Zrotation Xrotation Yrotation
          JOINT LeftArm
          {
            OFFSET 12.7628 2.9953 -4.8467
            CHANNELS 6 Xposition Yposition Zposition Zrotation Xrotation Yrotation
            JOINT LeftForeArm
            {
              OFFSET 27.1108 -0.0961 -0.2349
              CHANNELS 6 Xposition Yposition Zposition Zrotation Xrotation Yrotation
              JOINT LeftHand
              {
                OFFSET 22.6162 0.0656 -0.1355
                CHANNELS 6 Xposition Yposition Zposition Zrotation Xrotation Yrotation
                JOINT LeftHandIndex1
                {
                  OFFSET 8.7654 0.7666 2.4346
                  CHANNELS 6 Xposition Yposition Zposition Zrotation Xrotation Yrotation
                  JOINT LeftHandIndex2
                  {
                    OFFSET 3.2787 -0.7995 0.5777
                    CHANNELS 6 Xposition Yposition Zposition Zrotation Xrotation Yrotation
                    JOINT LeftHandIndex3
                    {
                      OFFSET 2.2383 -0.5459 0.3945
                      CHANNELS 6 Xposition Yposition Zposition Zrotation Xrotation Yrotation
                      End Site
                      {
                        OFFSET 1.5927 -0.4755 0.2584
                      }
                    }
                  }
                }
                JOINT LeftHandMiddle1
                {
                  OFFSET 8.8962 0.8853 0.212
                  CHANNELS 6 Xposition Yposition Zposition Zrotation Xrotation Yrotation
                  JOINT LeftHandMiddle2
                  {
                    OFFSET 4.0539 0.0113 -0.0239
                    CHANNELS 6 Xposition Yposition Zposition Zrotation Xrotation Yrotation
                    JOINT LeftHandMiddle3
                    {
                      OFFSET 2.2471 0.0069 -0.0137
                      CHANNELS 6 Xposition Yposition Zposition Zrotation Xrotation Yrotation
                      End Site
                      {
                        OFFSET 2.0183 -0.1425 0.0027
                      }
                    }
                  }
                }
                JOINT LeftHandRing1
                {
                  OFFSET 8.431 0.5908 -1.9946
                  CHANNELS 6 Xposition Yposition Zposition Zrotation Xrotation Yrotation
                  JOINT LeftHandRing2
                  {
                    OFFSET 3.6785 -0.1862 -0.2303
                    CHANNELS 6 Xposition Yposition Zposition Zrotation Xrotation Yrotation
                    JOINT LeftHandRing3
                    {
                      OFFSET 2.0962 -0.1055 -0.1317
                      CHANNELS 6 Xposition Yposition Zposition Zrotation Xrotation Yrotation
                      End Site
                      {
                        OFFSET 1.8534 -0.2279 -0.0876
                      }
                    }
                  }
                }
                JOINT LeftHandPinky1
                {
                  OFFSET 7.8236 -0.5945 -3.4447
                  CHANNELS 6 Xposition Yposition Zposition Zrotation Xrotation Yrotation
                  JOINT LeftHandPinky2
                  {
                    OFFSET 2.2626 -0.4719 -0.6246
                    CHANNELS 6 Xposition Yposition Zposition Zrotation Xrotation Yrotation
                    JOINT LeftHandPinky3
                    {
                      OFFSET 1.6592 -0.3455 -0.4583
                      CHANNELS 6 Xposition Yposition Zposition Zrotation Xrotation Yrotation
                      End Site
                      {
                        OFFSET 1.4727 -0.4046 -0.3379
                      }
                    }
                  }
                }
                JOINT LeftHandThumb1
                {
                  OFFSET 1.8133 -1.3724 1.3746
                  CHANNELS 6 Xposition Yposition Zposition Zrotation Xrotation Yrotation
                  JOINT LeftHandThumb2
                  {
                    OFFSET 3.376 -1.1087 2.5453
                    CHANNELS 6 Xposition Yposition Zposition Zrotation Xrotation Yrotation
                    JOINT LeftHandThumb3
                    {
                      OFFSET 2.223 -0.7955 1.6016
                      CHANNELS 6 Xposition Yposition Zposition Zrotation Xrotation Yrotation
                      End Site
                      {
                        OFFSET 1.6347 -0.5627 1.1194
                      }
                    }
                  }
                }
              }
            }
          }
        }
        JOINT RightShoulder
        {
          OFFSET -2.1846 20.8826 7.1545
          CHANNELS 6 Xposition Yposition Zposition Zrotation Xrotation Yrotation
          JOINT RightArm
          {
            OFFSET -12.7651 2.9958 -4.8475
            CHANNELS 6 Xposition Yposition Zposition Zrotation Xrotation Yrotation
            JOINT RightForeArm
            {
              OFFSET -27.1108 -0.0961 -0.2349
              CHANNELS 6 Xposition Yposition Zposition Zrotation Xrotation Yrotation
              JOINT RightHand
              {
                OFFSET -22.6162 0.0656 -0.1355
                CHANNELS 6 Xposition Yposition Zposition Zrotation Xrotation Yrotation
                JOINT RightHandIndex1
                {
                  OFFSET -8.7654 0.7667 2.4346
                  CHANNELS 6 Xposition Yposition Zposition Zrotation Xrotation Yrotation
                  JOINT RightHandIndex2
                  {
                    OFFSET -3.2787 -0.7995 0.5777
                    CHANNELS 6 Xposition Yposition Zposition Zrotation Xrotation Yrotation
                    JOINT RightHandIndex3
                    {
                      OFFSET -2.2383 -0.5461 0.3945
                      CHANNELS 6 Xposition Yposition Zposition Zrotation Xrotation Yrotation
                      End Site
                      {
                        OFFSET -1.5928 -0.4755 0.2584
                      }
                    }
                  }
                }
                JOINT RightHandMiddle1
                {
                  OFFSET -8.8962 0.8853 0.212
                  CHANNELS 6 Xposition Yposition Zposition Zrotation Xrotation Yrotation
                  JOINT RightHandMiddle2
                  {
                    OFFSET -4.0539 0.0113 -0.024
                    CHANNELS 6 Xposition Yposition Zposition Zrotation Xrotation Yrotation
                    JOINT RightHandMiddle3
                    {
                      OFFSET -2.2471 0.0069 -0.0137
                      CHANNELS 6 Xposition Yposition Zposition Zrotation Xrotation Yrotation
                      End Site
                      {
                        OFFSET -2.0183 -0.1425 0.0027
                      }
                    }
                  }
                }
                JOINT RightHandRing1
                {
                  OFFSET -8.431 0.5908 -1.9946
                  CHANNELS 6 Xposition Yposition Zposition Zrotation Xrotation Yrotation
                  JOINT RightHandRing2
                  {
                    OFFSET -3.6785 -0.1862 -0.2303
                    CHANNELS 6 Xposition Yposition Zposition Zrotation Xrotation Yrotation
                    JOINT RightHandRing3
                    {
                      OFFSET -2.0962 -0.1055 -0.1317
                      CHANNELS 6 Xposition Yposition Zposition Zrotation Xrotation Yrotation
                      End Site
                      {
                        OFFSET -1.8534 -0.2279 -0.0876
                      }
                    }
                  }
                }
                JOINT RightHandPinky1
                {
                  OFFSET -7.8236 -0.5945 -3.4447
                  CHANNELS 6 Xposition Yposition Zposition Zrotation Xrotation Yrotation
                  JOINT RightHandPinky2
                  {
                    OFFSET -2.2626 -0.4718 -0.624601
                    CHANNELS 6 Xposition Yposition Zposition Zrotation Xrotation Yrotation
                    JOINT RightHandPinky3
                    {
                      OFFSET -1.6592 -0.3454 -0.4583
                      CHANNELS 6 Xposition Yposition Zposition Zrotation Xrotation Yrotation
                      End Site
                      {
                        OFFSET -1.4727 -0.4046 -0.3379
                      }
                    }
                  }
                }
                JOINT RightHandThumb1
                {
                  OFFSET -1.8133 -1.3723 1.3745
                  CHANNELS 6 Xposition Yposition Zposition Zrotation Xrotation Yrotation
                  JOINT RightHandThumb2
                  {
                    OFFSET -3.3759 -1.1088 2.5454
                    CHANNELS 6 Xposition Yposition Zposition Zrotation Xrotation Yrotation
                    JOINT RightHandThumb3
                    {
                      OFFSET -2.223 -0.7954 1.6016
                      CHANNELS 6 Xposition Yposition Zposition Zrotation Xrotation Yrotation
                      End Site
                      {
                        OFFSET -1.6347 -0.5627 1.1194
                      }
                    }
                  }
                }
              }
            }
          }
        }
      }
    }
  }
  JOINT RightUpLeg
  {
    OFFSET -9.0969 3.8439 -0.7498
    CHANNELS 6 Xposition Yposition Zposition Zrotation Xrotation Yrotation
    JOINT RightLeg
    {
      OFFSET -0.7279 -39.5674 0
      CHANNELS 6 Xposition Yposition Zposition Zrotation Xrotation Yrotation
      JOINT RightFoot
      {
        OFFSET 0 -38.8528 0
        CHANNELS 6 Xposition Yposition Zposition Zrotation Xrotation Yrotation
        JOINT RightToeBase
        {
          OFFSET 0 -4.2703 8.9297
          CHANNELS 6 Xposition Yposition Zposition Zrotation Xrotation Yrotation
          End Site
          {
            OFFSET 0 0 5.9906
          }
        }
      }
    }
  }
  JOINT LeftUpLeg
  {
    OFFSET 9.0968 3.8442 -0.7498
    CHANNELS 6 Xposition Yposition Zposition Zrotation Xrotation Yrotation
    JOINT LeftLeg
    {
      OFFSET 0.728 -39.5676 0
      CHANNELS 6 Xposition Yposition Zposition Zrotation Xrotation Yrotation
      JOINT LeftFoot
      {
        OFFSET 0 -38.8528 0
        CHANNELS 6 Xposition Yposition Zposition Zrotation Xrotation Yrotation
        JOINT LeftToeBase
        {
          OFFSET 0 -4.2703 8.9297
          CHANNELS 6 Xposition Yposition Zposition Zrotation Xrotation Yrotation
          End Site
          {
            OFFSET 0 0 5.9906
          }
        }
      }
    }
  }
}
MOTION
Frames:	4
Frame Time:	0.0333333
-11.5593 72.0877 3.9451 -25.7471 -5.92808 71.2296 0 8.5038 -4.6017 1.29537 6.16377 3.4265 0 7.7603 0.4054 2.23512 12.393 6.77096 0 9.6025 -2.1374 2.23511 12.3931 6.771 4.44089e-016 21.6389 -0.45 5.05111 -11.3004 2.354 -0.0001 12.2197 3.3238 2.82356 -23.3634 2.69812 2.1846 20.8826 7.1545 0.111798 -4.08594 -12.7734 12.7628 2.9953 -4.8467 -47.6838 -23.5189 -29.3268 27.1108 -0.0961 -0.2349 4.74956 2.92297 -52.3144 22.6162 0.0656 -0.1355 55.1462 -15.476 14.2893 8.7654 0.7666 2.4346 -28.8314 -1.02295 12.9669 3.2787 -0.7995 0.5777 -24.9595 7.38068 -3.30076 2.2383 -0.5459 0.3945 -21.8777 6.43215 -6.58441 8.8962 0.8853 0.212 -18.9401 -3.12254 -3.25529 4.0539 0.0113 -0.0239 -44.859 -1.31422 -12.093 2.2471 0.0069 -0.0137 -27.6798 -1.46628 -8.71349 8.431 0.5908 -1.9946 -12.5905 -9.91504 -17.1164 3.6785 -0.1862 -0.2303 -45.4776 -10.5478 -13.6134 2.0962 -0.1055 -0.1317 -29.5062 -7.61431 -6.42096 7.8236 -0.5945 -3.4447 -13.906 -23.5454 -28.3397 2.2626 -0.4719 -0.6246 -43.81 -17.3672 -9.97818 1.6592 -0.3455 -0.4583 -23.0638 -10.5523 -4.91092 1.8133 -1.3724 1.3746 -16.09 17.5023 6.05884 3.376 -1.1087 2.5453 -0.425704 0.41039 0.560765 2.223 -0.7955 1.6016 -6.22139 4.88566 7.30105 -2.1846 20.8826 7.1545 -1.24907 -3.9807 10.056 -12.7651 2.9958 -4.8475 54.4055 -14.4096 39.6441 -27.1108 -0.0961 -0.2349 -10.4658 -0.859302 66.3424 -22.6162 0.0656 -0.1355 -55.2294 1.40569 -6.11597 -8.7654 0.7667 2.4346 25.0749 -0.277358 -17.7095 -3.2787 -0.7995 0.5777 26.8937 7.57942 1.31622 -2.2383 -0.5461 0.3945 22.9099 6.18299 5.42165 -8.8962 0.8853 0.212 16.4015 -1.66371 -0.414683 -4.0539 0.0113 -0.024 47.8026 -2.49681 9.02165 -2.2471 0.0069 -0.0137 28.8627 -2.17938 6.96777 -8.431 0.5908 -1.9946 10.5441 -8.65314 13.8391 -3.6785 -0.1862 -0.2303 47.8054 -11.8839 10.8832 -2.0962 -0.1055 -0.1317 32.2231 -8.37425 4.74499 -7.8236 -0.5945 -3.4447 11.0824 -22.3582 24.5924 -2.2626 -0.4718 -0.624601 47.0942 -19.2793 7.00226 -1.6592 -0.3454 -0.4583 26.0709 -12.531 4.40367 -1.8133 -1.3723 1.3745 15.7374 18.1442 -8.56227 -3.3759 -1.1088 2.5454 0.385103 0.445373 -0.512063 -2.223 -0.7954 1.6016 4.39985 4.12264 -7.12481 -9.0969 3.8439 -0.7498 23.9894 -36.4646 22.8957 -0.7279 -39.5674 -1.77636e-015 8.40933 52.9528 -5.30072 8.88179e-016 -38.8528 0 -11.1662 -37.2938 -5.87261 -8.88178e-016 -4.2703 8.9297 -1.98566 -3.90649 0.0289499 9.0968 3.8442 -0.7498 11.2274 -20.3696 14.3969 0.728 -39.5676 1.77636e-015 -15.1639 71.9738 8.15922 -8.88179e-016 -38.8528 0 2.40425 10.9189 -7.17628 -8.88179e-016 -4.2703 8.9297 -4.71091 0.32302 -0.127171 
-11.6469 72.3016 3.79348 -25.6378 -5.68375 70.1779 0 8.5038 -4.6017 1.07754 6.18055 3.65967 -3.55271e-015 7.7603 0.4054 1.76903 12.4168 7.26564 -1.77636e-015 9.6025 -2.1374 1.76906 12.4168 7.26566 -4.44089e-016 21.6389 -0.45 5.28403 -10.8216 2.30342 -0.0001 12.2197 3.3238 3.03338 -23.5194 2.59748 2.1846 20.8826 7.1545 0.16479 -4.44631 -12.9842 12.7628 2.9953 -4.8467 -47.7511 -23.5643 -29.5621 27.1108 -0.0961 -0.2349 5.05355 3.24585 -52.0271 22.6162 0.0656 -0.1355 55.0495 -15.3203 14.2494 8.7654 0.7666 2.4346 -28.9589 -0.975593 13.0462 3.2787 -0.7995 0.5777 -25.0145 7.40069 -3.36304 2.2383 -0.5459 0.3945 -21.4656 6.25462 -6.73586 8.8962 0.8853 0.212 -19.0037 -3.03072 -3.16777 4.0539 0.0113 -0.0239 -44.859 -1.31421 -12.093 2.2471 0.0069 -0.0137 -27.5437 -1.56463 -9.0376 8.431 0.5908 -1.9946 -12.5953 -10.0191 -17.2136 3.6785 -0.1862 -0.2303 -45.4543 -10.5504 -13.599 2.0962 -0.1055 -0.1317 -29.7547 -7.50701 -6.02481 7.8236 -0.5945 -3.4447 -13.9698 -23.6516 -28.4625 2.2626 -0.4719 -0.6246 -43.8114 -17.3656 -9.97552 1.6592 -0.3455 -0.4583 -23.2275 -10.44 -4.49549 1.8133 -1.3724 1.3746 -16.1425 17.5389 6.15125 3.376 -1.1087 2.5453 -0.425704 0.410399 0.560776 2.223 -0.7955 1.6016 -6.11783 4.82779 7.05457 -2.1846 20.8826 7.1545 -1.16501 -4.33202 10.2559 -12.7651 2.9958 -4.8475 54.4765 -14.3334 39.3361 -27.1108 -0.0961 -0.2349 -10.5811 -0.844417 65.3863 -22.6162 0.0656 -0.1355 -55.3719 0.590721 -6.01019 -8.7654 0.7667 2.4346 24.8595 -0.33244 -17.6145 -3.2787 -0.7995 0.5777 27.0465 7.63866 1.34722 -2.2383 -0.5461 0.3945 23.2213 6.31623 5.34309 -8.8962 0.8853 0.212 16.293 -1.77823 -0.308639 -4.0539 0.0113 -0.024 47.835 -2.49279 9.03075 -2.2471 0.0069 -0.0137 29.0752 -2.08332 6.71572 -8.431 0.5908 -1.9946 10.4829 -8.79209 13.9424 -3.6785 -0.1862 -0.2303 47.8301 -11.8822 10.8964 -2.0962 -0.1055 -0.1317 32.2215 -8.35159 4.652 -7.8236 -0.5945 -3.4447 11.0896 -22.5512 24.7523 -2.2626 -0.4718 -0.624601 47.1389 -19.2768 7.0079 -1.6592 -0.3454 -0.4583 25.8438 -12.3914 4.217 -1.8133 -1.3723 1.3745 15.6589 18.0779 -8.3952 -3.3759 -1.1088 2.5454 0.385104 0.445371 -0.512067 -2.223 -0.7954 1.6016 4.60453 4.29132 -7.27974 -9.0969 3.8439 -0.7498 23.0785 -34.177 22.9969 -0.7279 -39.5674 -4.44089e-015 7.90762 51.2144 -4.59466 0 -38.8528 3.55271e-015 -10.7248 -37.6869 -5.81199 -8.88179e-016 -4.2703 8.9297 -2.04191 -3.99116 0.0290592 9.0968 3.8442 -0.7498 13.55 -25.7358 16.652 0.728 -39.5676 -8.88179e-016 -22.0572 77.945 15.1754 -8.88179e-016 -38.8528 0 3.98795 8.58332 -6.37199 -8.88179e-016 -4.2703 8.9297 -4.58368 0.205812 -0.129264 
-11.7394 72.4318 3.60769 -25.5946 -5.31127 69.3254 0 8.5038 -4.6017 0.871319 6.15113 3.84976 0 7.7603 0.4054 1.33417 12.3466 7.67173 0 9.6025 -2.1374 1.33419 12.3467 7.67175 0 21.6389 -0.45 5.48383 -10.2008 2.16742 -0.0001 12.2197 3.3238 3.11615 -23.6675 2.55614 2.1846 20.8826 7.1545 0.119457 -4.80018 -13.2687 12.7628 2.9953 -4.8467 -47.7643 -23.5996 -29.5683 27.1108 -0.0961 -0.2349 5.4797 3.52181 -51.9287 22.6162 0.0656 -0.1355 54.8423 -15.1701 14.3033 8.7654 0.7666 2.4346 -29.0538 -0.942883 13.0992 3.2787 -0.7995 0.5777 -25.0686 7.42039 -3.42434 2.2383 -0.5459 0.3945 -21.077 6.09107 -6.83443 8.8962 0.8853 0.212 -19.0548 -2.96504 -3.10632 4.0539 0.0113 -0.0239 -44.859 -1.31422 -12.093 2.2471 0.0069 -0.0137 -27.3699 -1.64728 -9.276 8.431 0.5908 -1.9946 -12.6166 -9.96438 -17.1708 3.6785 -0.1862 -0.2303 -45.4513 -10.5508 -13.5972 2.0962 -0.1055 -0.1317 -29.499 -7.54009 -6.09363 7.8236 -0.5945 -3.4447 -13.9627 -23.59 -28.4039 2.2626 -0.4719 -0.6246 -43.822 -17.3534 -9.95593 1.6592 -0.3455 -0.4583 -22.9545 -10.4068 -4.60074 1.8133 -1.3724 1.3746 -16.1828 17.5662 6.21951 3.376 -1.1087 2.5453 -0.425708 0.410384 0.560769 2.223 -0.7955 1.6016 -6.05581 4.7958 6.8791 -2.1846 20.8826 7.1545 -1.27758 -4.55135 10.2688 -12.7651 2.9958 -4.8475 54.377 -13.7901 39.121 -27.1108 -0.0961 -0.2349 -10.6766 -1.20171 64.4322 -22.6162 0.0656 -0.1355 -55.5763 -0.204054 -6.02373 -8.7654 0.7667 2.4346 24.608 -0.396682 -17.5015 -3.2787 -0.7995 0.5777 27.197 7.69713 1.37761 -2.2383 -0.5461 0.3945 23.6719 6.54377 4.94214 -8.8962 0.8853 0.212 16.169 -1.91176 -0.185375 -4.0539 0.0113 -0.024 47.839 -2.4923 9.03186 -2.2471 0.0069 -0.0137 29.2651 -1.98311 6.43923 -8.431 0.5908 -1.9946 10.4123 -8.95527 14.0637 -3.6785 -0.1862 -0.2303 47.8301 -11.8822 10.8964 -2.0962 -0.1055 -0.1317 32.3999 -8.25033 4.2615 -7.8236 -0.5945 -3.4447 11.1008 -22.7767 24.9401 -2.2626 -0.4718 -0.624601 47.1401 -19.2768 7.00806 -1.6592 -0.3454 -0.4583 25.8219 -12.1963 3.70214 -1.8133 -1.3723 1.3745 15.5693 18.0017 -8.20417 -3.3759 -1.1088 2.5454 0.385108 0.445371 -0.512075 -2.223 -0.7954 1.6016 5.01427 4.62772 -7.62241 -9.0969 3.8439 -0.7498 22.0315 -32.1914 23.1622 -0.7279 -39.5674 8.88178e-016 7.44994 49.7012 -3.94188 1.77636e-015 -38.8528 -3.55271e-015 -10.2731 -38.1667 -5.63435 -8.88178e-016 -4.2703 8.9297 -2.09901 -4.07711 0.0290708 9.0968 3.8442 -0.7498 15.9603 -31.1848 18.1512 0.728 -39.5676 -4.44089e-016 -40.5666 82.5586 33.2916 -8.88178e-016 -38.8528 0 4.96146 6.33868 -5.96266 8.88178e-016 -4.2703 8.9297 -4.45726 0.0893693 -0.131093 
-11.8204 72.4804 3.39852 -25.5658 -4.89011 68.5847 3.55271e-015 8.5038 -4.6017 0.683912 6.09862 4.01527 0 7.7603 0.4054 0.941884 12.2301 8.02586 -1.77636e-015 9.6025 -2.1374 0.941888 12.2301 8.02589 4.44089e-016 21.6389 -0.45 5.58451 -9.45833 2.04039 -0.0001 12.2197 3.3238 3.1341 -23.8283 2.4806 2.1846 20.8826 7.1545 0.0279889 -5.05068 -13.5927 12.7628 2.9953 -4.8467 -47.7835 -23.6663 -29.4868 27.1108 -0.0961 -0.2349 5.98241 3.74693 -51.9698 22.6162 0.0656 -0.1355 54.5791 -14.9928 14.4154 8.7654 0.7666 2.4346 -29.1496 -0.909948 13.1528 3.2787 -0.7995 0.5777 -25.123 7.44014 -3.48587 2.2383 -0.5459 0.3945 -20.7523 5.95654 -6.89413 8.8962 0.8853 0.212 -19.1069 -2.89817 -3.04364 4.0539 0.0113 -0.0239 -44.859 -1.31421 -12.093 2.2471 0.0069 -0.0137 -27.2707 -1.71802 -9.50482 8.431 0.5908 -1.9946 -12.6443 -9.85457 -17.0794 3.6785 -0.1862 -0.2303 -45.4543 -10.5504 -13.599 2.0962 -0.1055 -0.1317 -29.2658 -7.61557 -6.35489 7.8236 -0.5945 -3.4447 -13.9319 -23.4709 -28.2837 2.2626 -0.4719 -0.6246 -43.8327 -17.3411 -9.93615 1.6592 -0.3455 -0.4583 -22.7822 -10.4855 -4.92399 1.8133 -1.3724 1.3746 -16.2235 17.5937 6.28847 3.376 -1.1087 2.5453 -0.425704 0.410402 0.560764 2.223 -0.7955 1.6016 -5.99332 4.76305 6.70166 -2.1846 20.8826 7.1545 -1.40712 -4.69742 10.222 -12.7651 2.9958 -4.8475 54.2445 -13.2356 38.9149 -27.1108 -0.0961 -0.2349 -10.7947 -1.58014 63.6467 -22.6162 0.0656 -0.1355 -55.7248 -0.829485 -6.08388 -8.7654 0.7667 2.4346 24.4344 -0.441193 -17.4279 -3.2787 -0.7995 0.5777 27.3493 7.75635 1.40822 -2.2383 -0.5461 0.3945 23.9511 6.69881 4.56994 -8.8962 0.8853 0.212 16.0813 -2.00271 -0.101955 -4.0539 0.0113 -0.024 47.835 -2.49279 9.03073 -2.2471 0.0069 -0.0137 29.4763 -1.91986 6.2992 -8.431 0.5908 -1.9946 10.3646 -9.06239 14.1428 -3.6785 -0.1862 -0.2303 47.8301 -11.8822 10.8964 -2.0962 -0.1055 -0.1317 32.6564 -8.18101 4.0114 -7.8236 -0.5945 -3.4447 11.1056 -22.9308 25.0675 -2.2626 -0.4718 -0.624601 47.1389 -19.2768 7.0079 -1.6592 -0.3454 -0.4583 25.9993 -12.1273 3.358 -1.8133 -1.3723 1.3745 15.5053 17.947 -8.06753 -3.3759 -1.1088 2.5454 0.385106 0.445361 -0.512052 -2.223 -0.7954 1.6016 5.29977 4.8609 -7.8692 -9.0969 3.8439 -0.7498 20.8742 -30.3292 23.3253 -0.7279 -39.5674 1.33227e-015 7.09865 48.3045 -3.40871 0 -38.8528 7.10543e-015 -9.86566 -38.7028 -5.44071 0 -4.2703 8.9297 -2.15721 -4.16469 0.0289964 9.0968 3.8442 -0.7498 18.5045 -36.7318 19.33 0.728 -39.5676 0 -82.0651 84.6241 74.1741 8.88179e-016 -38.8528 7.10543e-015 5.74514 4.06557 -5.69858 0 -4.2703 8.9297 -4.32957 -0.0282865 -0.132662 
